<mxfile host="65bd71144e">
    <diagram id="d3bsNFZWiPjSLCs4kxiG" name="Page-1">
        <mxGraphModel dx="2601" dy="739" grid="1" gridSize="10" guides="1" tooltips="1" connect="1" arrows="1" fold="1" page="1" pageScale="1" pageWidth="850" pageHeight="1100" math="0" shadow="0">
            <root>
                <mxCell id="0"/>
                <mxCell id="1" parent="0"/>
                <mxCell id="2" value="" style="whiteSpace=wrap;html=1;fontSize=40;strokeWidth=1;glass=0;rounded=0;" parent="1" vertex="1">
                    <mxGeometry x="-630" y="110" width="750" height="850" as="geometry"/>
                </mxCell>
                <mxCell id="3" value="&lt;span style=&quot;font-size: 40px&quot;&gt;&lt;b&gt;Ping From Container&lt;/b&gt;&lt;/span&gt;" style="text;html=1;resizable=0;autosize=1;align=center;verticalAlign=middle;points=[];fillColor=none;strokeColor=none;rounded=0;" parent="1" vertex="1">
                    <mxGeometry x="-470" y="130" width="410" height="30" as="geometry"/>
                </mxCell>
                <mxCell id="26" value="" style="group" parent="1" vertex="1" connectable="0">
                    <mxGeometry x="-280" y="710" width="170" height="225" as="geometry"/>
                </mxCell>
                <mxCell id="27" value="&lt;font color=&quot;#000000&quot; style=&quot;font-size: 30px&quot;&gt;Remote&lt;/font&gt;" style="text;html=1;resizable=0;autosize=1;align=center;verticalAlign=middle;points=[];fillColor=none;strokeColor=none;rounded=0;fontSize=23;fontColor=#FCFCFC;" parent="26" vertex="1">
                    <mxGeometry x="35" width="120" height="40" as="geometry"/>
                </mxCell>
                <mxCell id="28" value="" style="whiteSpace=wrap;html=1;fontSize=40;fillColor=#3399FF;strokeColor=#6c8ebf;align=center;strokeWidth=5;" parent="26" vertex="1">
                    <mxGeometry x="10" y="35" width="150" height="160" as="geometry"/>
                </mxCell>
                <mxCell id="29" value="&lt;font size=&quot;1&quot;&gt;&lt;b style=&quot;font-size: 27px&quot;&gt;192.168.1.20&lt;/b&gt;&lt;/font&gt;" style="text;html=1;resizable=0;autosize=1;align=center;verticalAlign=middle;points=[];fillColor=none;strokeColor=none;rounded=0;" parent="26" vertex="1">
                    <mxGeometry y="205" width="170" height="20" as="geometry"/>
                </mxCell>
                <mxCell id="30" value="" style="points=[];aspect=fixed;html=1;align=center;shadow=0;dashed=0;image;image=img/lib/allied_telesis/computer_and_terminals/Server_Desktop.svg;" parent="26" vertex="1">
                    <mxGeometry x="29.779999999999973" y="40" width="110.45" height="140" as="geometry"/>
                </mxCell>
                <mxCell id="31" style="edgeStyle=orthogonalEdgeStyle;html=1;entryX=0;entryY=0.5;entryDx=0;entryDy=0;strokeWidth=4;dashed=1;strokeColor=#3399FF;endArrow=none;endFill=0;" parent="1" target="28" edge="1">
                    <mxGeometry relative="1" as="geometry">
                        <Array as="points">
                            <mxPoint x="-415" y="825"/>
                        </Array>
                        <mxPoint x="-414.5999999999999" y="650" as="sourcePoint"/>
                    </mxGeometry>
                </mxCell>
                <mxCell id="53" value="" style="group" parent="1" vertex="1" connectable="0">
                    <mxGeometry x="-600" y="170" width="644.44" height="480" as="geometry"/>
                </mxCell>
                <mxCell id="32" value="" style="whiteSpace=wrap;html=1;fontSize=23;fillColor=#f5f5f5;fontColor=#333333;strokeColor=#666666;" parent="53" vertex="1">
                    <mxGeometry x="20.439999999999998" y="40" width="620" height="420" as="geometry"/>
                </mxCell>
                <mxCell id="33" value="" style="points=[];aspect=fixed;html=1;align=center;shadow=0;dashed=0;image;image=img/lib/allied_telesis/computer_and_terminals/Server_Desktop.svg;" parent="53" vertex="1">
                    <mxGeometry width="110.44" height="140" as="geometry"/>
                </mxCell>
                <mxCell id="34" value="&lt;div style=&quot;text-align: left&quot;&gt;&lt;/div&gt;&lt;font style=&quot;font-size: 23px&quot;&gt;&lt;b style=&quot;background-color: rgb(0 , 0 , 0)&quot;&gt;&lt;font color=&quot;#ffffff&quot;&gt;LINUX HOST&lt;/font&gt;&lt;/b&gt;&lt;br&gt;&lt;/font&gt;" style="text;html=1;resizable=0;autosize=1;align=center;verticalAlign=middle;points=[];fillColor=none;strokeColor=none;rounded=0;" parent="53" vertex="1">
                    <mxGeometry x="494.44" y="43" width="150" height="20" as="geometry"/>
                </mxCell>
                <mxCell id="36" value="&lt;font style=&quot;font-size: 16px&quot;&gt;&lt;br&gt;&lt;/font&gt;" style="sketch=0;outlineConnect=0;strokeColor=#6c8ebf;fillColor=#dae8fc;dashed=0;verticalLabelPosition=bottom;verticalAlign=top;align=center;html=1;fontSize=12;fontStyle=0;aspect=fixed;shape=mxgraph.aws4.resourceIcon;resIcon=mxgraph.aws4.container_1;" parent="53" vertex="1">
                    <mxGeometry x="130.44" y="120" width="100" height="100" as="geometry"/>
                </mxCell>
                <mxCell id="38" value="&lt;font style=&quot;font-size: 16px&quot;&gt;&lt;br&gt;&lt;/font&gt;" style="sketch=0;outlineConnect=0;strokeColor=#6c8ebf;fillColor=#dae8fc;dashed=0;verticalLabelPosition=bottom;verticalAlign=top;align=center;html=1;fontSize=12;fontStyle=0;aspect=fixed;shape=mxgraph.aws4.resourceIcon;resIcon=mxgraph.aws4.container_1;" parent="53" vertex="1">
                    <mxGeometry x="310.44" y="120" width="100" height="100" as="geometry"/>
                </mxCell>
                <mxCell id="39" style="edgeStyle=orthogonalEdgeStyle;html=1;fontSize=16;fontColor=#FF3333;strokeWidth=2;endArrow=none;endFill=0;" parent="53" source="40" edge="1">
                    <mxGeometry relative="1" as="geometry">
                        <mxPoint x="230.44" y="360" as="targetPoint"/>
                        <Array as="points">
                            <mxPoint x="550.44" y="330"/>
                            <mxPoint x="230.44" y="330"/>
                        </Array>
                    </mxGeometry>
                </mxCell>
                <mxCell id="40" value="&lt;font style=&quot;font-size: 16px&quot;&gt;&lt;br&gt;&lt;/font&gt;" style="sketch=0;outlineConnect=0;strokeColor=#6c8ebf;fillColor=#dae8fc;dashed=0;verticalLabelPosition=bottom;verticalAlign=top;align=center;html=1;fontSize=12;fontStyle=0;aspect=fixed;shape=mxgraph.aws4.resourceIcon;resIcon=mxgraph.aws4.container_1;" parent="53" vertex="1">
                    <mxGeometry x="500.44" y="120" width="100" height="100" as="geometry"/>
                </mxCell>
                <mxCell id="41" value="" style="group" parent="53" vertex="1" connectable="0">
                    <mxGeometry x="110.44" y="360" width="150" height="120" as="geometry"/>
                </mxCell>
                <mxCell id="42" value="&lt;b&gt;&lt;font style=&quot;font-size: 16px&quot; color=&quot;#ffffff&quot;&gt;eth0&lt;/font&gt;&lt;/b&gt;" style="whiteSpace=wrap;html=1;labelBackgroundColor=#000000;fillColor=#f0a30a;strokeColor=#BD7000;fontColor=#000000;" parent="41" vertex="1">
                    <mxGeometry y="60" width="150" height="60" as="geometry"/>
                </mxCell>
                <mxCell id="43" value="&lt;b&gt;&lt;font style=&quot;font-size: 16px&quot; color=&quot;#ffffff&quot;&gt;mac0&lt;/font&gt;&lt;/b&gt;" style="whiteSpace=wrap;html=1;labelBackgroundColor=#000000;fillColor=#f0a30a;strokeColor=#BD7000;fontColor=#000000;" parent="41" vertex="1">
                    <mxGeometry width="50" height="60" as="geometry"/>
                </mxCell>
                <mxCell id="44" value="&lt;b&gt;&lt;font style=&quot;font-size: 16px&quot; color=&quot;#ffffff&quot;&gt;mac1&lt;/font&gt;&lt;/b&gt;" style="whiteSpace=wrap;html=1;labelBackgroundColor=#000000;fillColor=#f0a30a;strokeColor=#BD7000;fontColor=#000000;" parent="41" vertex="1">
                    <mxGeometry x="50" width="50" height="60" as="geometry"/>
                </mxCell>
                <mxCell id="45" value="&lt;b&gt;&lt;font style=&quot;font-size: 16px&quot; color=&quot;#ffffff&quot;&gt;mac2&lt;/font&gt;&lt;/b&gt;" style="whiteSpace=wrap;html=1;labelBackgroundColor=#000000;fillColor=#f0a30a;strokeColor=#BD7000;fontColor=#000000;" parent="41" vertex="1">
                    <mxGeometry x="100" width="50" height="60" as="geometry"/>
                </mxCell>
                <mxCell id="35" style="edgeStyle=orthogonalEdgeStyle;html=1;fontSize=16;fontColor=#FF3333;strokeWidth=4;endArrow=none;endFill=0;strokeColor=#3399FF;dashed=1;" parent="53" source="36" target="43" edge="1">
                    <mxGeometry relative="1" as="geometry"/>
                </mxCell>
                <mxCell id="37" style="edgeStyle=orthogonalEdgeStyle;html=1;entryX=0.5;entryY=0;entryDx=0;entryDy=0;fontSize=16;fontColor=#FF3333;strokeWidth=2;endArrow=none;endFill=0;" parent="53" source="38" target="44" edge="1">
                    <mxGeometry relative="1" as="geometry">
                        <Array as="points">
                            <mxPoint x="360.44" y="310"/>
                            <mxPoint x="185.44" y="310"/>
                        </Array>
                    </mxGeometry>
                </mxCell>
                <mxCell id="46" value="&lt;span style=&quot;color: rgb(0 , 0 , 0)&quot;&gt;IP: 192.168.1.10&lt;/span&gt;&lt;br style=&quot;color: rgb(0 , 0 , 0)&quot;&gt;&lt;span style=&quot;color: rgb(0 , 0 , 0)&quot;&gt;MAC: &lt;/span&gt;&lt;font color=&quot;#ff3333&quot;&gt;00:00:00:00:01:10&lt;/font&gt;" style="text;html=1;resizable=0;autosize=1;align=left;verticalAlign=middle;points=[];fillColor=none;strokeColor=none;rounded=0;labelBackgroundColor=none;fontSize=16;fontColor=#FFFFFF;" parent="53" vertex="1">
                    <mxGeometry x="265.44" y="420" width="190" height="40" as="geometry"/>
                </mxCell>
                <mxCell id="47" value="&lt;span style=&quot;color: rgb(0 , 0 , 0)&quot;&gt;IP: 192.168.1.12&lt;/span&gt;&lt;br style=&quot;color: rgb(0 , 0 , 0)&quot;&gt;&lt;span style=&quot;color: rgb(0 , 0 , 0)&quot;&gt;MAC:&amp;nbsp;&lt;/span&gt;02:42:c0:a8:00:02" style="text;html=1;resizable=0;autosize=1;align=center;verticalAlign=middle;points=[];fillColor=none;strokeColor=none;rounded=0;labelBackgroundColor=none;fontSize=16;fontColor=#FF3333;" parent="53" vertex="1">
                    <mxGeometry x="20.439999999999998" y="269" width="190" height="40" as="geometry"/>
                </mxCell>
                <mxCell id="48" value="&lt;span style=&quot;color: rgb(0 , 0 , 0)&quot;&gt;Container 1&lt;/span&gt;&lt;br style=&quot;color: rgb(0 , 0 , 0)&quot;&gt;" style="text;html=1;resizable=0;autosize=1;align=center;verticalAlign=middle;points=[];fillColor=none;strokeColor=none;rounded=0;labelBackgroundColor=none;fontSize=16;fontColor=#FF3333;" parent="53" vertex="1">
                    <mxGeometry x="130.44" y="120" width="100" height="20" as="geometry"/>
                </mxCell>
                <mxCell id="49" value="&lt;span style=&quot;color: rgb(0 , 0 , 0)&quot;&gt;IP: 192.168.1.13&lt;/span&gt;&lt;br style=&quot;color: rgb(0 , 0 , 0)&quot;&gt;&lt;span style=&quot;color: rgb(0 , 0 , 0)&quot;&gt;MAC:&amp;nbsp;&lt;/span&gt;00:00:0000:01:13" style="text;html=1;resizable=0;autosize=1;align=center;verticalAlign=middle;points=[];fillColor=none;strokeColor=none;rounded=0;labelBackgroundColor=none;fontSize=16;fontColor=#FF3333;" parent="53" vertex="1">
                    <mxGeometry x="208.44" y="290" width="180" height="40" as="geometry"/>
                </mxCell>
                <mxCell id="50" value="&lt;span style=&quot;color: rgb(0 , 0 , 0)&quot;&gt;Container 2&lt;/span&gt;" style="text;html=1;resizable=0;autosize=1;align=center;verticalAlign=middle;points=[];fillColor=none;strokeColor=none;rounded=0;labelBackgroundColor=none;fontSize=16;fontColor=#FF3333;" parent="53" vertex="1">
                    <mxGeometry x="310.44" y="120" width="100" height="20" as="geometry"/>
                </mxCell>
                <mxCell id="51" value="&lt;span style=&quot;color: rgb(0 , 0 , 0)&quot;&gt;IP: 192.168.1.14&lt;/span&gt;&lt;br style=&quot;color: rgb(0 , 0 , 0)&quot;&gt;&lt;span style=&quot;color: rgb(0 , 0 , 0)&quot;&gt;MAC:&amp;nbsp;&lt;/span&gt;00:00:0000:01:14" style="text;html=1;resizable=0;autosize=1;align=center;verticalAlign=middle;points=[];fillColor=none;strokeColor=none;rounded=0;labelBackgroundColor=none;fontSize=16;fontColor=#FF3333;" parent="53" vertex="1">
                    <mxGeometry x="398.44" y="309" width="180" height="40" as="geometry"/>
                </mxCell>
                <mxCell id="52" value="&lt;span style=&quot;color: rgb(0 , 0 , 0)&quot;&gt;Container 3&lt;/span&gt;" style="text;html=1;resizable=0;autosize=1;align=center;verticalAlign=middle;points=[];fillColor=none;strokeColor=none;rounded=0;labelBackgroundColor=none;fontSize=16;fontColor=#FF3333;" parent="53" vertex="1">
                    <mxGeometry x="500.44" y="120" width="100" height="20" as="geometry"/>
                </mxCell>
            </root>
        </mxGraphModel>
    </diagram>
</mxfile>